<svg version="1.1" id="Layer_1" xmlns="http://www.w3.org/2000/svg" xmlns:xlink="http://www.w3.org/1999/xlink" x="0px" y="0px"
	 width="100%" viewBox="0 0 270 107" enable-background="new 0 0 270 107" xml:space="preserve">
<path fill="#FDFEFF" opacity="1.000000" stroke="none" 
	d="
M97.000000,108.000000 
	C65.020691,108.000000 33.041378,108.000000 1.031034,108.000000 
	C1.031034,72.377106 1.031034,36.754177 1.031034,1.065623 
	C90.898018,1.065623 180.796097,1.065623 270.847107,1.065623 
	C270.847107,36.666252 270.847107,72.333023 270.847107,108.000000 
	C238.895981,108.000000 206.916641,108.000000 174.291534,107.559502 
	C173.726547,81.642311 173.847992,56.165531 173.791046,30.689156 
	C173.787476,29.096268 172.683060,27.256777 171.586594,25.957573 
	C166.219391,19.597916 160.862488,13.207661 155.091064,7.224585 
	C153.395767,5.467124 150.371155,4.147758 147.925568,4.097494 
	C133.774445,3.806641 119.614304,3.952087 105.457214,3.956954 
	C97.764534,3.959598 97.129715,4.596610 97.105644,12.096614 
	C97.045799,30.745148 96.973999,49.393642 96.586975,67.890808 
	C93.992287,63.151711 92.131348,58.296276 89.367729,54.024876 
	C79.946709,39.463894 66.236885,30.207024 50.103493,24.810419 
	C43.251583,22.518467 38.408379,20.115547 39.993179,11.881924 
	C40.022438,11.729907 39.580551,11.487206 38.997890,10.961395 
	C26.668530,19.520638 14.254165,28.138893 1.189141,37.208843 
	C14.528351,46.421165 26.870058,54.944592 39.876892,63.927364 
	C40.154285,59.523518 40.356174,56.318317 40.603848,52.386292 
	C47.424320,53.117931 53.700375,53.568645 59.903858,54.501785 
	C73.904373,56.607765 86.027069,62.895306 97.006355,72.224503 
	C97.060814,84.468361 97.030411,96.234184 97.000000,108.000000 
M213.233688,37.295467 
	C213.233688,34.902424 213.233688,32.509377 213.233688,28.783749 
	C199.680847,38.170406 187.338333,46.718788 174.182037,55.830803 
	C187.406723,64.979759 199.860535,73.595413 212.756088,82.516678 
	C213.006165,80.991310 213.173737,80.365898 213.202393,79.734192 
	C213.564880,71.745262 213.588913,71.826797 221.219635,69.108170 
	C238.073273,63.103634 252.812302,54.042690 262.602875,38.597691 
	C265.803864,33.547962 267.807098,27.738956 270.358093,22.277191 
	C269.927185,22.006645 269.496246,21.736097 269.065308,21.465551 
	C254.576981,34.608391 237.009094,39.262489 218.105728,40.040024 
	C216.521698,40.105179 214.882889,38.838741 213.233688,37.295467 
z"/>
<path fill="#080808" opacity="1.000000" stroke="none" 
	d="
M96.907005,68.042152 
	C96.973999,49.393642 97.045799,30.745148 97.105644,12.096614 
	C97.129715,4.596610 97.764534,3.959598 105.457214,3.956954 
	C119.614304,3.952087 133.774445,3.806641 147.925568,4.097494 
	C150.371155,4.147758 153.395767,5.467124 155.091064,7.224585 
	C160.862488,13.207661 166.219391,19.597916 171.586594,25.957573 
	C172.683060,27.256777 173.787476,29.096268 173.791046,30.689156 
	C173.847992,56.165531 173.726547,81.642311 173.822876,107.559502 
	C148.645767,108.000000 123.291542,108.000000 97.468658,108.000000 
	C97.030411,96.234184 97.060814,84.468361 97.122681,72.082809 
	C97.154137,71.463066 97.277412,71.115494 97.429382,70.991585 
	C97.479958,70.539948 97.378555,70.212227 97.224457,69.573959 
	C97.083511,68.856331 96.995262,68.449242 96.907005,68.042152 
M140.463333,99.380417 
	C138.659073,99.358986 136.851654,99.398247 135.051163,99.304344 
	C130.341553,99.058708 127.414635,96.053955 127.217171,91.339851 
	C127.015335,86.521332 130.064758,82.881165 134.784714,82.556404 
	C136.565186,82.433899 138.376587,82.760872 140.516602,82.906227 
	C140.821320,81.484596 141.111206,80.132126 141.389572,78.833481 
	C132.667480,75.692108 124.583961,78.696671 121.964699,85.922798 
	C120.008797,91.318848 120.374023,96.661095 124.657120,100.714439 
	C129.458633,105.258369 135.295166,105.528763 141.655396,102.798126 
	C142.469711,102.641106 143.284012,102.484077 144.755234,102.868126 
	C148.459564,103.200951 152.380753,104.412239 155.794891,103.569473 
	C158.224426,102.969749 160.781464,99.934265 161.818771,97.389542 
	C163.133316,94.164749 160.986725,91.353584 157.898209,89.708366 
	C156.150879,88.777588 154.216904,88.162155 152.570755,87.091431 
	C151.769791,86.570442 150.864929,85.190536 151.045746,84.454651 
	C151.241074,83.659698 152.611542,82.705833 153.535339,82.630562 
	C155.468964,82.472992 157.445877,82.846840 159.719589,83.027428 
	C160.118744,81.732803 160.525955,80.412102 160.920090,79.133743 
	C153.759415,75.881958 148.934692,77.095924 144.083359,83.139091 
	C144.253479,84.431046 144.423584,85.722992 144.909225,87.662270 
	C147.439926,89.594078 150.037842,91.445831 152.473495,93.490837 
	C153.726501,94.542870 154.690353,95.939301 155.784866,97.180099 
	C154.144913,97.895996 152.560394,98.891258 150.845886,99.231453 
	C149.665848,99.465599 148.295746,98.555534 147.029495,98.608566 
	C146.218216,98.642540 145.441345,99.498535 143.922150,99.986549 
	C142.952927,99.990860 141.983688,99.995171 140.463333,99.380417 
M149.228668,23.089731 
	C149.228668,18.165245 149.228668,13.240757 149.228668,8.404869 
	C132.881653,8.404869 117.186783,8.404869 101.492325,8.404869 
	C101.492325,30.552092 101.492325,52.281204 101.492325,74.192459 
	C124.348526,74.192459 146.912613,74.192459 169.522324,74.192459 
	C169.522324,59.820747 169.522324,45.755184 169.522324,31.525398 
	C165.642502,31.525398 162.074524,31.525398 157.990982,31.525398 
	C157.990982,40.767166 157.865417,49.719086 158.044571,58.664906 
	C158.132645,63.062286 156.597488,65.077522 151.978943,65.007660 
	C140.825150,64.838943 129.666412,64.882797 118.511093,64.989937 
	C114.503059,65.028427 112.731476,63.393227 112.792786,59.344296 
	C112.908730,51.686493 112.552597,44.012218 112.930801,36.371422 
	C113.137291,32.199917 114.446266,28.082985 115.258041,23.941442 
	C115.729713,23.944763 116.201393,23.948084 116.673073,23.951406 
	C117.263527,25.506824 117.853981,27.062244 118.557495,28.915476 
	C122.906067,28.000326 127.132904,27.110796 132.126282,26.059946 
	C134.454788,29.547003 137.294189,28.982021 139.133041,24.488138 
	C140.838120,25.738298 142.183151,27.025440 143.786270,27.689457 
	C144.189972,27.856667 145.419983,26.028913 146.898605,25.259926 
	C147.624100,26.078451 148.349594,26.896975 149.075089,27.715500 
	C149.381821,27.572609 149.688553,27.429720 149.995285,27.286831 
	C149.705215,26.199017 149.415146,25.111202 149.228668,23.089731 
M115.980034,36.862926 
	C115.980034,45.104492 115.980034,53.346058 115.980034,61.611366 
	C129.281158,61.611366 141.846497,61.611366 154.669327,61.611366 
	C154.669327,52.516090 154.669327,43.665409 154.669327,34.396530 
	C142.130554,34.396530 129.880524,34.376774 117.631226,34.461735 
	C117.085953,34.465515 116.547295,35.422264 115.980034,36.862926 
M117.223198,83.583572 
	C117.223198,81.806213 117.223198,80.028862 117.223198,78.116524 
	C114.966095,78.116524 113.255318,78.116524 111.377449,78.116524 
	C111.377449,86.799339 111.377449,95.161072 111.377449,103.680008 
	C113.387421,103.680008 115.096870,103.680008 117.223259,103.680008 
	C117.223259,97.098564 117.223259,90.829765 117.223198,83.583572 
z"/>
<path fill="#48C3FC" opacity="1.000000" stroke="none" 
	d="
M96.586975,67.890808 
	C96.995262,68.449242 97.083511,68.856331 97.144058,69.882164 
	C97.170029,70.705765 97.223717,70.910629 97.277412,71.115494 
	C97.277412,71.115494 97.154137,71.463066 97.037811,71.604759 
	C86.027069,62.895306 73.904373,56.607765 59.903858,54.501785 
	C53.700375,53.568645 47.424320,53.117931 40.603848,52.386292 
	C40.356174,56.318317 40.154285,59.523518 39.876892,63.927364 
	C26.870058,54.944592 14.528351,46.421165 1.189141,37.208843 
	C14.254165,28.138893 26.668530,19.520638 38.997890,10.961395 
	C39.580551,11.487206 40.022438,11.729907 39.993179,11.881924 
	C38.408379,20.115547 43.251583,22.518467 50.103493,24.810419 
	C66.236885,30.207024 79.946709,39.463894 89.367729,54.024876 
	C92.131348,58.296276 93.992287,63.151711 96.586975,67.890808 
z"/>
<path fill="#48C3FC" opacity="1.000000" stroke="none" 
	d="
M213.251617,37.743210 
	C214.882889,38.838741 216.521698,40.105179 218.105728,40.040024 
	C237.009094,39.262489 254.576981,34.608391 269.065308,21.465551 
	C269.496246,21.736097 269.927185,22.006645 270.358093,22.277191 
	C267.807098,27.738956 265.803864,33.547962 262.602875,38.597691 
	C252.812302,54.042690 238.073273,63.103634 221.219635,69.108170 
	C213.588913,71.826797 213.564880,71.745262 213.202393,79.734192 
	C213.173737,80.365898 213.006165,80.991310 212.756088,82.516678 
	C199.860535,73.595413 187.406723,64.979759 174.182037,55.830803 
	C187.338333,46.718788 199.680847,38.170406 213.233688,28.783749 
	C213.233688,32.509377 213.233688,34.902424 213.251617,37.743210 
z"/>
<path fill="#F5F5F5" opacity="1.000000" stroke="none" 
	d="
M146.270264,25.117950 
	C145.419983,26.028913 144.189972,27.856667 143.786270,27.689457 
	C142.183151,27.025440 140.838120,25.738298 139.133041,24.488138 
	C137.294189,28.982021 134.454788,29.547003 132.126282,26.059946 
	C127.132904,27.110796 122.906067,28.000326 118.557495,28.915476 
	C117.853981,27.062244 117.263527,25.506824 116.673073,23.951406 
	C116.201393,23.948084 115.729713,23.944763 115.258041,23.941442 
	C114.446266,28.082985 113.137291,32.199917 112.930801,36.371422 
	C112.552597,44.012218 112.908730,51.686493 112.792786,59.344296 
	C112.731476,63.393227 114.503059,65.028427 118.511093,64.989937 
	C129.666412,64.882797 140.825150,64.838943 151.978943,65.007660 
	C156.597488,65.077522 158.132645,63.062286 158.044571,58.664906 
	C157.865417,49.719086 157.990982,40.767166 157.990982,31.525398 
	C162.074524,31.525398 165.642502,31.525398 169.522324,31.525398 
	C169.522324,45.755184 169.522324,59.820747 169.522324,74.192459 
	C146.912613,74.192459 124.348526,74.192459 101.492325,74.192459 
	C101.492325,52.281204 101.492325,30.552092 101.492325,8.404869 
	C117.186783,8.404869 132.881653,8.404869 149.228668,8.404869 
	C149.228668,13.240757 149.228668,18.165245 148.804825,23.557007 
	C147.677414,24.388838 146.973831,24.753395 146.270264,25.117950 
z"/>
<path fill="#F0F0F0" opacity="1.000000" stroke="none" 
	d="
M115.992798,36.399029 
	C116.547295,35.422264 117.085953,34.465515 117.631226,34.461735 
	C129.880524,34.376774 142.130554,34.396530 154.669327,34.396530 
	C154.669327,43.665409 154.669327,52.516090 154.669327,61.611366 
	C141.846497,61.611366 129.281158,61.611366 115.980034,61.611366 
	C115.980034,53.346058 115.980034,45.104492 115.992798,36.399029 
M128.051056,49.167759 
	C128.819336,43.714161 125.645050,44.596310 121.967346,45.471603 
	C122.127876,47.112648 122.269028,48.555546 122.331657,50.707333 
	C121.917992,53.455868 121.504318,56.204407 121.014938,59.456017 
	C123.899544,59.146473 125.897446,58.932076 127.746925,58.733608 
	C127.746925,55.586979 127.746925,52.791649 128.051056,49.167759 
M137.861328,49.195488 
	C138.660400,44.109100 135.622192,44.566048 131.823761,45.298023 
	C131.939453,46.933502 132.047821,48.465542 132.115967,50.845882 
	C131.686417,53.421326 131.256866,55.996773 130.804810,58.707161 
	C133.600891,58.707161 135.630020,58.707161 137.538406,58.707161 
	C137.538406,55.582798 137.538406,52.792732 137.861328,49.195488 
M146.953995,45.169815 
	C145.390686,45.169815 143.827377,45.169815 142.250549,45.169815 
	C142.250549,47.275055 142.250549,48.979366 142.250549,50.594250 
	C146.989594,51.796257 148.415283,49.947495 146.953995,45.169815 
M144.519608,59.008087 
	C149.309433,58.758972 146.038773,55.476902 146.424026,53.106655 
	C144.315918,53.504322 142.112518,54.158813 141.223846,55.615414 
	C140.331757,57.077599 140.804626,59.298820 144.519608,59.008087 
z"/>
<path fill="#E8E8E8" opacity="1.000000" stroke="none" 
	d="
M144.649048,99.986038 
	C145.441345,99.498535 146.218216,98.642540 147.029495,98.608566 
	C148.295746,98.555534 149.665848,99.465599 150.845886,99.231453 
	C152.560394,98.891258 154.144913,97.895996 155.784866,97.180099 
	C154.690353,95.939301 153.726501,94.542870 152.473495,93.490837 
	C150.037842,91.445831 147.439926,89.594078 144.809341,86.938873 
	C144.709351,85.140404 144.709229,84.065331 144.709122,82.990265 
	C148.934692,77.095924 153.759415,75.881958 160.920090,79.133743 
	C160.525955,80.412102 160.118744,81.732803 159.719589,83.027428 
	C157.445877,82.846840 155.468964,82.472992 153.535339,82.630562 
	C152.611542,82.705833 151.241074,83.659698 151.045746,84.454651 
	C150.864929,85.190536 151.769791,86.570442 152.570755,87.091431 
	C154.216904,88.162155 156.150879,88.777588 157.898209,89.708366 
	C160.986725,91.353584 163.133316,94.164749 161.818771,97.389542 
	C160.781464,99.934265 158.224426,102.969749 155.794891,103.569473 
	C152.380753,104.412239 148.459564,103.200951 144.632233,102.239944 
	C144.555832,101.069847 144.602448,100.527946 144.649048,99.986038 
z"/>
<path fill="#E8E8E8" opacity="1.000000" stroke="none" 
	d="
M141.292892,102.969276 
	C135.295166,105.528763 129.458633,105.258369 124.657120,100.714439 
	C120.374023,96.661095 120.008797,91.318848 121.964699,85.922798 
	C124.583961,78.696671 132.667480,75.692108 141.389572,78.833481 
	C141.111206,80.132126 140.821320,81.484596 140.516602,82.906227 
	C138.376587,82.760872 136.565186,82.433899 134.784714,82.556404 
	C130.064758,82.881165 127.015335,86.521332 127.217171,91.339851 
	C127.414635,96.053955 130.341553,99.058708 135.051163,99.304344 
	C136.851654,99.398247 138.659073,99.358986 140.697037,100.063591 
	C141.051453,101.487602 141.172180,102.228439 141.292892,102.969276 
z"/>
<path fill="#EAEAEA" opacity="1.000000" stroke="none" 
	d="
M117.223228,84.072266 
	C117.223259,90.829765 117.223259,97.098564 117.223259,103.680008 
	C115.096870,103.680008 113.387421,103.680008 111.377449,103.680008 
	C111.377449,95.161072 111.377449,86.799339 111.377449,78.116524 
	C113.255318,78.116524 114.966095,78.116524 117.223198,78.116524 
	C117.223198,80.028862 117.223198,81.806213 117.223228,84.072266 
z"/>
<path fill="#525252" opacity="1.000000" stroke="none" 
	d="
M146.584442,25.188938 
	C146.973831,24.753395 147.677414,24.388838 148.753021,24.023834 
	C149.415146,25.111202 149.705215,26.199017 149.995285,27.286831 
	C149.688553,27.429720 149.381821,27.572609 149.075089,27.715500 
	C148.349594,26.896975 147.624100,26.078451 146.584442,25.188938 
z"/>
<path fill="#0E0E0E" opacity="1.000000" stroke="none" 
	d="
M141.474152,102.883698 
	C141.172180,102.228439 141.051453,101.487602 140.972595,100.373123 
	C141.983688,99.995171 142.952927,99.990860 144.285599,99.986298 
	C144.602448,100.527946 144.555832,101.069847 144.303772,101.969406 
	C143.284012,102.484077 142.469711,102.641106 141.474152,102.883698 
z"/>
<path fill="#0E0E0E" opacity="1.000000" stroke="none" 
	d="
M144.396240,83.064682 
	C144.709229,84.065331 144.709351,85.140404 144.651581,86.615204 
	C144.423584,85.722992 144.253479,84.431046 144.396240,83.064682 
z"/>
<path fill="#303030" opacity="1.000000" stroke="none" 
	d="
M97.429382,70.991585 
	C97.223717,70.910629 97.170029,70.705765 97.196747,70.192703 
	C97.378555,70.212227 97.479958,70.539948 97.429382,70.991585 
z"/>
<path fill="#313131" opacity="1.000000" stroke="none" 
	d="
M137.538406,50.002663 
	C137.538406,52.792732 137.538406,55.582798 137.538406,58.707161 
	C135.630020,58.707161 133.600891,58.707161 130.804810,58.707161 
	C131.256866,55.996773 131.686417,53.421326 132.521225,50.421696 
	C134.463791,49.999226 136.001099,50.000942 137.538406,50.002663 
z"/>
<path fill="#343434" opacity="1.000000" stroke="none" 
	d="
M127.746925,49.996315 
	C127.746925,52.791649 127.746925,55.586979 127.746925,58.733608 
	C125.897446,58.932076 123.899544,59.146473 121.014938,59.456017 
	C121.504318,56.204407 121.917992,53.455868 122.751389,50.351051 
	C124.696388,49.995285 126.221657,49.995800 127.746925,49.996315 
z"/>
<path fill="#2C2C2C" opacity="1.000000" stroke="none" 
	d="
M147.243561,45.474937 
	C148.415283,49.947495 146.989594,51.796257 142.250549,50.594250 
	C142.250549,48.979366 142.250549,47.275055 142.250549,45.169815 
	C143.827377,45.169815 145.390686,45.169815 147.243561,45.474937 
z"/>
<path fill="#222222" opacity="1.000000" stroke="none" 
	d="
M144.078293,59.005402 
	C140.804626,59.298820 140.331757,57.077599 141.223846,55.615414 
	C142.112518,54.158813 144.315918,53.504322 146.424026,53.106655 
	C146.038773,55.476902 149.309433,58.758972 144.078293,59.005402 
z"/>
<path fill="#313131" opacity="1.000000" stroke="none" 
	d="
M127.898987,49.582035 
	C126.221657,49.995800 124.696388,49.995285 122.790649,49.996605 
	C122.269028,48.555546 122.127876,47.112648 121.967346,45.471603 
	C125.645050,44.596310 128.819336,43.714161 127.898987,49.582035 
z"/>
<path fill="#2E2E2E" opacity="1.000000" stroke="none" 
	d="
M137.699860,49.599075 
	C136.001099,50.000942 134.463791,49.999226 132.541351,49.997543 
	C132.047821,48.465542 131.939453,46.933502 131.823761,45.298023 
	C135.622192,44.566048 138.660400,44.109100 137.699860,49.599075 
z"/>
</svg>